<?xml version="1.0" standalone="no"?>
<!DOCTYPE svg PUBLIC "-//W3C//DTD SVG 20010904//EN"
 "http://www.w3.org/TR/2001/REC-SVG-20010904/DTD/svg10.dtd">
<svg version="1.0" xmlns="http://www.w3.org/2000/svg"
 width="1002.000000pt" height="550.000000pt" viewBox="0 0 1002.000000 550.000000"
 preserveAspectRatio="xMidYMid meet">

<g transform="translate(0.000000,550.000000) scale(0.100000,-0.100000)"
fill="#000000" stroke="none">
<path d="M5841 3555 c-302 -53 -575 -223 -730 -456 -225 -335 -226 -884 -2
-1117 146 -152 352 -256 826 -414 285 -95 311 -107 362 -160 169 -175 25 -434
-251 -455 -113 -9 -208 11 -455 94 -220 73 -226 75 -310 71 -120 -4 -176 -33
-292 -150 -50 -50 -91 -89 -93 -87 -2 2 -101 400 -221 884 -120 484 -219 881
-220 883 -2 2 -45 -8 -96 -22 -222 -60 -419 -57 -634 11 -162 51 -295 131
-436 262 l-77 71 -42 -98 c-71 -162 -341 -753 -449 -982 -95 -200 -100 -216
-84 -229 35 -26 144 -71 320 -131 185 -63 379 -148 366 -161 -14 -13 -170 -58
-271 -79 -74 -15 -570 -70 -631 -70 -5 0 -12 -12 -16 -27 -3 -16 -44 -107 -90
-203 -95 -199 -110 -246 -103 -334 7 -81 35 -143 93 -205 141 -151 403 -173
551 -48 36 30 92 142 183 364 l63 152 42 -5 c99 -11 523 -55 779 -80 l277 -28
0 -33 c0 -77 78 -389 118 -471 31 -63 104 -135 169 -164 38 -17 67 -22 143
-22 117 0 186 24 259 90 66 59 92 116 100 215 l6 78 90 -56 c173 -108 350
-180 555 -225 92 -20 133 -23 330 -23 248 0 325 12 513 76 187 64 235 96 408
272 l155 159 26 -63 c15 -35 34 -87 42 -115 52 -162 346 -262 558 -189 93 32
137 95 238 339 104 251 98 241 145 238 22 -1 249 -25 504 -52 510 -55 508 -54
548 -126 12 -22 36 -107 53 -193 36 -176 58 -241 101 -300 88 -122 274 -152
444 -72 82 38 138 90 172 159 43 88 38 182 -20 382 -24 85 -176 673 -337 1305
-160 633 -302 1180 -315 1218 -13 37 -38 90 -55 117 -84 131 -253 220 -416
220 -212 0 -395 -143 -532 -416 -78 -156 -705 -1530 -784 -1719 -44 -104 -114
-257 -156 -339 l-77 -149 -6 239 c-8 306 -23 391 -94 534 -68 136 -203 287
-334 374 -111 74 -220 120 -453 190 -419 127 -508 174 -538 284 -21 81 22 152
122 198 58 27 71 29 178 28 110 -1 121 -3 273 -52 191 -63 276 -78 349 -62
225 48 337 324 220 543 -72 134 -297 260 -573 322 -104 23 -378 29 -488 10z
m2963 -1482 c57 -274 100 -502 98 -507 -6 -11 -210 -1 -367 19 -65 8 -150 15
-187 15 -37 0 -68 2 -68 4 0 2 12 30 26 62 14 33 74 194 134 359 137 382 163
444 213 504 23 27 43 48 45 46 2 -2 50 -228 106 -502z m-4981 338 c8 -27 45
-178 82 -337 73 -320 98 -411 126 -466 11 -21 19 -41 19 -46 0 -4 -39 0 -87 9
-98 19 -335 39 -467 39 l-86 0 0 44 c0 87 251 746 316 832 l28 36 27 -31 c14
-18 33 -54 42 -80z"/>
<path d="M7220 1125 l-23 -25 26 0 c22 0 27 5 27 25 0 14 -1 25 -3 25 -2 0
-14 -11 -27 -25z"/>
</g>
</svg>
